<svg xmlns="http://www.w3.org/2000/svg" version="1.1" xmlns:xlink="http://www.w3.org/1999/xlink" viewBox="0 0 700 700" style="overflow: hidden; display: block;" width="700" height="700"><defs><linearGradient id="two-51" x1="350" y1="-350" x2="350" y2="350" spreadMethod="pad" gradientUnits="userSpaceOnUse"><stop offset="0%" stop-color="hsl(162, 100%, 58%)" stop-opacity="1"></stop><stop offset="100%" stop-color="hsl(270, 73%, 53%)" stop-opacity="1"></stop></linearGradient></defs><g id="two-0" transform="matrix(1 0 0 1 0 0)" opacity="1"><path transform="matrix(1 0 0 1 350 350)" id="two-117" d="M 175.807508 51.621742 C 188.712802 79.992896 234.153367 113.670373 214.437213 137.810429 C 189.216364 168.69032 134.94283 100.701757 96.537146 111.409805 C 82.554592 115.308339 73.328441 130.113974 64.778175 141.844419 C 49.56137 162.720951 52.986712 199.489174 30.514311 212.231701 C 13.145709 222.08022 -11.748557 215.631459 -29.766024 207.027242 C -48.635293 198.016249 -53.296365 165.982531 -73.688349 161.354976 C -107.347151 153.71678 -137.816156 205.013424 -171.624025 198.064682 C -196.168624 193.019877 -217.922002 169.092456 -226.450111 145.530649 C -235.688904 120.005334 -204.325485 87.664254 -217.240767 63.787644 C -239.489488 22.656211 -334.265292 45.785237 -343.779091 0 C -350.864669 -34.099402 -298.069846 -53.961496 -276.264701 -81.118636 C -259.440253 -102.072584 -237.063859 -120.833908 -226.407002 -145.502945 C -213.431559 -175.539166 -236.917023 -223.544746 -210.940023 -243.437764 C -183.293405 -264.609364 -137.833107 -217.991486 -106.023328 -232.158703 C -74.837682 -246.047948 -79.573502 -316.240702 -45.435506 -316.01088 C -2.124866 -315.719305 5.796494 -244.525709 29.992572 -208.602926 C 42.986768 -189.311054 48.740735 -162.094257 68.222641 -149.386747 C 83.275081 -139.568456 104.030879 -141.102169 121.999758 -140.795227 C 162.068718 -140.110773 216.929426 -186.701578 242.502191 -155.846696 C 263.174536 -130.904427 229.135713 -90.164602 212.467753 -62.386162 C 197.713746 -37.797472 156.795996 -28.268163 151.97984 -0.000001 C 148.828633 18.495834 168.038943 34.543235 175.807508 51.621742 Z " fill="url(#two-51)" stroke="undefined" stroke-width="1" stroke-opacity="1" fill-opacity="1" visibility="visible" stroke-linecap="butt" stroke-linejoin="miter" stroke-miterlimit="4"></path></g></svg>